<?xml version="1.0" encoding="UTF-8"?>
<svg xmlns="http://www.w3.org/2000/svg" xmlns:xlink="http://www.w3.org/1999/xlink" viewBox="0 0 1400 2190" width="1400" height="2190" preserveAspectRatio="xMidYMid meet" style="max-width:100%;height:auto" font-family="'Noto Sans TC','Microsoft JhengHei','PingFang TC','Heiti TC','Hiragino Sans TC','Source Han Sans TC',sans-serif" role="img" aria-label="2613 白海豚：11 篇文章看預測怎麼一路翻轉">
<title>2613 白海豚：11 篇文章看預測怎麼一路翻轉</title>
<desc>整理 PTT 大氣板 TY_Research 關於 2613 白海豚的 11 篇討論，說明路徑預測與強度預測的演變，以及高壓重建造成西折的機制。</desc>
<defs>
<linearGradient id="bg" x1="0" y1="0" x2="0.6" y2="1"><stop offset="0" stop-color="#061727"/><stop offset="0.55" stop-color="#082138"/><stop offset="1" stop-color="#0a2a49"/></linearGradient>
<linearGradient id="footg" x1="0" y1="0" x2="1" y2="0"><stop offset="0" stop-color="#0d3a63"/><stop offset="1" stop-color="#123f5e"/></linearGradient>
<radialGradient id="eyeg" cx="0.5" cy="0.5" r="0.5"><stop offset="0" stop-color="#ffffff"/><stop offset="0.35" stop-color="#7dd3fc"/><stop offset="1" stop-color="#0ea5e9" stop-opacity="0.15"/></radialGradient>
<radialGradient id="hg" cx="0.5" cy="0.5" r="0.5"><stop offset="0" stop-color="#38bdf8" stop-opacity="0.42"/><stop offset="1" stop-color="#38bdf8" stop-opacity="0"/></radialGradient>
<filter id="glow" x="-60%" y="-60%" width="220%" height="220%"><feGaussianBlur stdDeviation="5" result="b"/><feMerge><feMergeNode in="b"/><feMergeNode in="SourceGraphic"/></feMerge></filter>
<marker id="ar-c" viewBox="0 0 10 10" refX="8.5" refY="5" markerWidth="6.5" markerHeight="6.5" orient="auto"><path d="M0,0 L10,5 L0,10 z" fill="#7dd3fc"/></marker>
<marker id="ar-g" viewBox="0 0 10 10" refX="8.5" refY="5" markerWidth="6.5" markerHeight="6.5" orient="auto"><path d="M0,0 L10,5 L0,10 z" fill="#34d399"/></marker>
<marker id="ar-p" viewBox="0 0 10 10" refX="8.5" refY="5" markerWidth="6.5" markerHeight="6.5" orient="auto"><path d="M0,0 L10,5 L0,10 z" fill="#f472b6"/></marker>
<marker id="ar-o" viewBox="0 0 10 10" refX="8.5" refY="5" markerWidth="6.5" markerHeight="6.5" orient="auto"><path d="M0,0 L10,5 L0,10 z" fill="#fb923c"/></marker>
<marker id="ar-w" viewBox="0 0 10 10" refX="8.5" refY="5" markerWidth="6.5" markerHeight="6.5" orient="auto"><path d="M0,0 L10,5 L0,10 z" fill="#cbe4ff"/></marker>
</defs>
<style>
text{ font-kerning:normal; }
.tl-item{ opacity:.42; animation:tlOn 68s linear infinite; }
.tl-hl{ opacity:0; animation:hlOn 68s linear infinite; }
.tl-halo{ opacity:0; animation:haloOn 68s linear infinite; }
@keyframes tlOn{ 0%{opacity:.42} 0.65%{opacity:1} 5.3%{opacity:1} 5.88%{opacity:.42} 100%{opacity:.42} }
@keyframes hlOn{ 0%{opacity:0} 0.8%{opacity:1} 5.3%{opacity:1} 5.88%{opacity:0} 100%{opacity:0} }
@keyframes haloOn{ 0%{opacity:0;stroke-width:2} 0.55%{opacity:.95;stroke-width:2}
  3%{opacity:.25;stroke-width:9} 5.3%{opacity:.9;stroke-width:2} 5.88%{opacity:0} 100%{opacity:0} }

.trk{ fill:none; stroke-linecap:round; stroke-linejoin:round;
  stroke-dasharray:900; stroke-dashoffset:900; animation:draw 21s ease-in-out infinite; }
@keyframes draw{ 0%{stroke-dashoffset:900} 4%{stroke-dashoffset:900}
  22%{stroke-dashoffset:0} 94%{stroke-dashoffset:0} 100%{stroke-dashoffset:900} }
.trk-lbl{ opacity:0; animation:lblOn 21s ease-in-out infinite; }
@keyframes lblOn{ 0%{opacity:0} 16%{opacity:0} 24%{opacity:1} 94%{opacity:1} 100%{opacity:0} }

.spin{ transform-box:fill-box; transform-origin:center; animation:spin 3.2s linear infinite; }
@keyframes spin{ to{ transform:rotate(360deg) } }

.hpulse{ transform-box:fill-box; transform-origin:center; animation:hp 4.4s ease-in-out infinite; }
@keyframes hp{ 0%,100%{ transform:scale(.82); opacity:.5 } 50%{ transform:scale(1.12); opacity:1 } }

.mapTrough{ animation:troughGo 21s ease-in-out infinite; }
@keyframes troughGo{ 0%{ transform:translate(0,0); opacity:1 } 34%{ transform:translate(0,0); opacity:1 }
  60%{ transform:translate(52px,-46px); opacity:.18 } 92%{ transform:translate(52px,-46px); opacity:.12 }
  100%{ transform:translate(0,0); opacity:1 } }

.fbox{ opacity:.45; animation:boxOn 12s linear infinite; }
@keyframes boxOn{ 0%{opacity:.45} 3%{opacity:1} 17%{opacity:1} 20%{opacity:.45} 100%{opacity:.45} }
.farrow{ opacity:.3; animation:arrOn 12s linear infinite; }
@keyframes arrOn{ 0%{opacity:.3} 17%{opacity:1} 20%{opacity:.3} 100%{opacity:.3} }

.step{ opacity:.5; animation:stepOn 15s linear infinite; }
@keyframes stepOn{ 0%{opacity:.5} 2%{opacity:1} 30%{opacity:1} 34%{opacity:.5} 100%{opacity:.5} }
.s1arrow{ stroke-dasharray:120; stroke-dashoffset:120; animation:sdraw 15s ease-in-out infinite; }
.s3arrow{ stroke-dasharray:210; stroke-dashoffset:210; animation:sdraw 15s ease-in-out infinite;
  animation-delay:10s; }
@keyframes sdraw{ 0%{stroke-dashoffset:220} 6%{stroke-dashoffset:220} 22%{stroke-dashoffset:0}
  32%{stroke-dashoffset:0} 34%{stroke-dashoffset:220} 100%{stroke-dashoffset:220} }
.s2trough{ animation:s2go 15s ease-in-out infinite; animation-delay:5s; }
@keyframes s2go{ 0%{ transform:translate(0,0); opacity:1 } 8%{ transform:translate(0,0); opacity:1 }
  26%{ transform:translate(46px,-34px); opacity:.15 } 33%{ transform:translate(46px,-34px); opacity:.12 }
  34%{ transform:translate(0,0); opacity:1 } 100%{ transform:translate(0,0); opacity:1 } }
.s3h{ transform-box:fill-box; transform-origin:center; animation:s3p 15s ease-in-out infinite;
  animation-delay:10s; }
@keyframes s3p{ 0%{ transform:scale(.6); opacity:.25 } 8%{ transform:scale(.6); opacity:.25 }
  20%{ transform:scale(1.1); opacity:1 } 30%{ transform:scale(1); opacity:.9 }
  34%{ transform:scale(.6); opacity:.25 } 100%{ transform:scale(.6); opacity:.25 } }

.tyicon{ opacity:0; animation:reveal .01s linear .25s forwards; }
@keyframes reveal{ to{ opacity:1 } }

.blink{ animation:blink 2.6s ease-in-out infinite; }
@keyframes blink{ 0%,100%{opacity:.35} 50%{opacity:1} }

@media (prefers-reduced-motion: reduce){
  .tl-item,.tl-hl,.tl-halo,.trk,.trk-lbl,.spin,.hpulse,.mapTrough,.fbox,.farrow,
  .step,.s1arrow,.s3arrow,.s2trough,.s3h,.blink{ animation:none !important; }
  .tl-item,.fbox,.step{ opacity:1 !important; }
  .tl-hl{ opacity:0 !important; }
  .trk{ stroke-dashoffset:0 !important; }
  .trk-lbl{ opacity:1 !important; }
  .s1arrow,.s3arrow{ stroke-dashoffset:0 !important; }
  .tyicon{ opacity:1 !important; animation:none !important; }
}
</style>
<rect width="1400" height="2190" fill="url(#bg)"/>
<rect x="0" y="0" width="1400" height="6" fill="#38bdf8" opacity="0.85"/>
<text x="30" y="66" font-size="44" fill="#ffffff" font-weight="700" text-anchor="start">2613 白海豚</text>
<text x="268" y="66" font-size="34" fill="#7dd3fc" font-weight="700" text-anchor="start">17 篇文章看預測怎麼一路翻轉</text>
<text x="32" y="104" font-size="21" fill="#8fb3d4" font-weight="400" text-anchor="start">資料整理自 PTT 大氣板 TY_Research｜7/27 15:14 → 8/3 11:20 共 17 篇討論串</text>
<rect x="1150" y="34" width="222" height="42" rx="21" fill="#0f3557" stroke="#2b6ea3"/>
<text x="1261" y="62" font-size="20" fill="#9fd8f7" font-weight="500" text-anchor="middle">路徑 ‧ 強度 ‧ 環流</text>
<rect x="28" y="128" width="492" height="1622" rx="18" fill="#0c2540" stroke="#1c4a78" stroke-width="1.5"/>
<text x="52" y="172" font-size="26" fill="#7dd3fc" font-weight="700" text-anchor="start">A｜17 篇文章時間線</text>
<text x="52" y="202" font-size="18" fill="#7d9fbf" font-weight="400" text-anchor="start">每 4 秒高亮一篇，整輪 68 秒</text>
<line x1="64" y1="228" x2="64" y2="1720" stroke="#1e4a76" stroke-width="3"/>
<g class="tl-item" style="animation-delay:0.00s">
<rect class="tl-hl" style="animation-delay:0.00s" x="34" y="202" width="480" height="84" rx="12" fill="#16456f" stroke="#39a8e0" stroke-width="1.5"/>
<circle class="tl-halo" style="animation-delay:0.00s" cx="64" cy="226" r="22" fill="none" stroke="#38bdf8"/>
<circle cx="64" cy="226" r="16" fill="#12395f" stroke="#38bdf8" stroke-width="2.5"/>
<text x="64" y="232" font-size="18" fill="#d8efff" font-weight="700" text-anchor="middle">1</text>
<text x="96" y="219" font-size="19" fill="#fbbf24" font-weight="700" text-anchor="start">7/27 15:14</text>
<text x="96" y="241" font-size="21.5" fill="#ffffff" font-weight="700" text-anchor="start">開串：JMA 首報登場</text>
<text x="96" y="262" font-size="17.5" fill="#a9c9e8" font-weight="400" text-anchor="start">遠洋大物，初步印象是後期可能北轉</text>
<text x="96" y="281" font-size="17.5" fill="#a9c9e8" font-weight="400" text-anchor="start">討論剛開始，還沒有翻盤原因</text>
</g>
<g class="tl-item" style="animation-delay:4.00s">
<rect class="tl-hl" style="animation-delay:4.00s" x="34" y="292" width="480" height="84" rx="12" fill="#16456f" stroke="#39a8e0" stroke-width="1.5"/>
<circle class="tl-halo" style="animation-delay:4.00s" cx="64" cy="316" r="22" fill="none" stroke="#38bdf8"/>
<circle cx="64" cy="316" r="16" fill="#12395f" stroke="#38bdf8" stroke-width="2.5"/>
<text x="64" y="322" font-size="18" fill="#d8efff" font-weight="700" text-anchor="middle">2</text>
<text x="96" y="309" font-size="19" fill="#fbbf24" font-weight="700" text-anchor="start">7/27 15:21</text>
<text x="96" y="331" font-size="21.5" fill="#ffffff" font-weight="700" text-anchor="start">首批模式登場</text>
<text x="96" y="352" font-size="17.5" fill="#a9c9e8" font-weight="400" text-anchor="start">JTWC／GFS／ECMWF／AIFS／FNV3 首次比較</text>
<text x="96" y="371" font-size="17.5" fill="#a9c9e8" font-weight="400" text-anchor="start">遠期分歧大，有人已注意高壓偏強</text>
</g>
<g class="tl-item" style="animation-delay:8.00s">
<rect class="tl-hl" style="animation-delay:8.00s" x="34" y="382" width="480" height="84" rx="12" fill="#16456f" stroke="#39a8e0" stroke-width="1.5"/>
<circle class="tl-halo" style="animation-delay:8.00s" cx="64" cy="406" r="22" fill="none" stroke="#38bdf8"/>
<circle cx="64" cy="406" r="16" fill="#12395f" stroke="#38bdf8" stroke-width="2.5"/>
<text x="64" y="412" font-size="18" fill="#d8efff" font-weight="700" text-anchor="middle">3</text>
<text x="96" y="399" font-size="19" fill="#fbbf24" font-weight="700" text-anchor="start">7/27 22:23</text>
<text x="96" y="421" font-size="21.5" fill="#ffffff" font-weight="700" text-anchor="start">72 小時後分兩派</text>
<text x="96" y="442" font-size="17.5" fill="#a9c9e8" font-weight="400" text-anchor="start">一派維持西北、一派提早偏西</text>
<text x="96" y="461" font-size="17.5" fill="#a9c9e8" font-weight="400" text-anchor="start">JTWC 承認遠期不確定性高</text>
</g>
<g class="tl-item" style="animation-delay:12.00s">
<rect class="tl-hl" style="animation-delay:12.00s" x="34" y="472" width="480" height="84" rx="12" fill="#16456f" stroke="#39a8e0" stroke-width="1.5"/>
<circle class="tl-halo" style="animation-delay:12.00s" cx="64" cy="496" r="22" fill="none" stroke="#38bdf8"/>
<circle cx="64" cy="496" r="16" fill="#12395f" stroke="#38bdf8" stroke-width="2.5"/>
<text x="64" y="502" font-size="18" fill="#d8efff" font-weight="700" text-anchor="middle">4</text>
<text x="96" y="489" font-size="19" fill="#fbbf24" font-weight="700" text-anchor="start">7/28 11:36</text>
<text x="96" y="511" font-size="21.5" fill="#ffffff" font-weight="700" text-anchor="start">第一次明顯西修</text>
<text x="96" y="532" font-size="17.5" fill="#a9c9e8" font-weight="400" text-anchor="start">實際位置比模式更偏南，路徑整體西修</text>
<text x="96" y="551" font-size="17.5" fill="#a9c9e8" font-weight="400" text-anchor="start">討論從日本擴大到琉球、東海</text>
</g>
<g class="tl-item" style="animation-delay:16.00s">
<rect class="tl-hl" style="animation-delay:16.00s" x="34" y="562" width="480" height="84" rx="12" fill="#16456f" stroke="#39a8e0" stroke-width="1.5"/>
<circle class="tl-halo" style="animation-delay:16.00s" cx="64" cy="586" r="22" fill="none" stroke="#38bdf8"/>
<circle cx="64" cy="586" r="16" fill="#12395f" stroke="#38bdf8" stroke-width="2.5"/>
<text x="64" y="592" font-size="18" fill="#d8efff" font-weight="700" text-anchor="middle">5</text>
<text x="96" y="579" font-size="19" fill="#fbbf24" font-weight="700" text-anchor="start">7/28 23:55</text>
<text x="96" y="601" font-size="21.5" fill="#ffffff" font-weight="700" text-anchor="start">強度超出預期</text>
<text x="96" y="622" font-size="17.5" fill="#a9c9e8" font-weight="400" text-anchor="start">爆發增強、形成針孔眼，6 小時 +13 公尺／秒</text>
<text x="96" y="641" font-size="17.5" fill="#a9c9e8" font-weight="400" text-anchor="start">巔峰預測上修到約 85～93 公尺／秒</text>
</g>
<g class="tl-item" style="animation-delay:20.00s">
<rect class="tl-hl" style="animation-delay:20.00s" x="34" y="652" width="480" height="84" rx="12" fill="#16456f" stroke="#39a8e0" stroke-width="1.5"/>
<circle class="tl-halo" style="animation-delay:20.00s" cx="64" cy="676" r="22" fill="none" stroke="#38bdf8"/>
<circle cx="64" cy="676" r="16" fill="#12395f" stroke="#38bdf8" stroke-width="2.5"/>
<text x="64" y="682" font-size="18" fill="#d8efff" font-weight="700" text-anchor="middle">6</text>
<text x="96" y="669" font-size="19" fill="#fbbf24" font-weight="700" text-anchor="start">7/29 12:01</text>
<text x="96" y="691" font-size="21.5" fill="#ffffff" font-weight="700" text-anchor="start">第一次眼牆置換</text>
<text x="96" y="712" font-size="17.5" fill="#a9c9e8" font-weight="400" text-anchor="start">強度暫時下修，增強被打斷</text>
<text x="96" y="731" font-size="17.5" fill="#a9c9e8" font-weight="400" text-anchor="start">問題改成「何時開始西折」</text>
</g>
<g class="tl-item" style="animation-delay:24.00s">
<rect class="tl-hl" style="animation-delay:24.00s" x="34" y="742" width="480" height="84" rx="12" fill="#16456f" stroke="#39a8e0" stroke-width="1.5"/>
<circle class="tl-halo" style="animation-delay:24.00s" cx="64" cy="766" r="22" fill="none" stroke="#38bdf8"/>
<circle cx="64" cy="766" r="16" fill="#12395f" stroke="#38bdf8" stroke-width="2.5"/>
<text x="64" y="772" font-size="18" fill="#d8efff" font-weight="700" text-anchor="middle">7</text>
<text x="96" y="759" font-size="19" fill="#fbbf24" font-weight="700" text-anchor="start">7/29 22:52</text>
<text x="96" y="781" font-size="21.5" fill="#ffffff" font-weight="700" text-anchor="start">換眼後再增強</text>
<text x="96" y="802" font-size="17.5" fill="#a9c9e8" font-weight="400" text-anchor="start">新眼形成、結構恢復，強度再上修</text>
<text x="96" y="821" font-size="17.5" fill="#a9c9e8" font-weight="400" text-anchor="start">但開始擔心之後再換眼、再波動</text>
</g>
<g class="tl-item" style="animation-delay:28.00s">
<rect class="tl-hl" style="animation-delay:28.00s" x="34" y="832" width="480" height="84" rx="12" fill="#16456f" stroke="#39a8e0" stroke-width="1.5"/>
<circle class="tl-halo" style="animation-delay:28.00s" cx="64" cy="856" r="22" fill="none" stroke="#38bdf8"/>
<circle cx="64" cy="856" r="16" fill="#12395f" stroke="#38bdf8" stroke-width="2.5"/>
<text x="64" y="862" font-size="18" fill="#d8efff" font-weight="700" text-anchor="middle">8</text>
<text x="96" y="849" font-size="19" fill="#fbbf24" font-weight="700" text-anchor="start">7/30 07:29</text>
<text x="96" y="871" font-size="21.5" fill="#ffffff" font-weight="700" text-anchor="start">高壓重建觀點浮現</text>
<text x="96" y="892" font-size="17.5" fill="#a9c9e8" font-weight="400" text-anchor="start">明確指出 72 小時後新高壓脊建立</text>
<text x="96" y="911" font-size="17.5" fill="#a9c9e8" font-weight="400" text-anchor="start">白海豚將轉為偏西</text>
</g>
<g class="tl-item" style="animation-delay:32.00s">
<rect class="tl-hl" style="animation-delay:32.00s" x="34" y="922" width="480" height="84" rx="12" fill="#16456f" stroke="#39a8e0" stroke-width="1.5"/>
<circle class="tl-halo" style="animation-delay:32.00s" cx="64" cy="946" r="22" fill="none" stroke="#38bdf8"/>
<circle cx="64" cy="946" r="16" fill="#12395f" stroke="#38bdf8" stroke-width="2.5"/>
<text x="64" y="952" font-size="18" fill="#d8efff" font-weight="700" text-anchor="middle">9</text>
<text x="96" y="939" font-size="19" fill="#fbbf24" font-weight="700" text-anchor="start">7/30 11:29</text>
<text x="96" y="961" font-size="21.5" fill="#ffffff" font-weight="700" text-anchor="start">模式更收斂</text>
<text x="96" y="982" font-size="17.5" fill="#a9c9e8" font-weight="400" text-anchor="start">模式差距縮小，延續高壓重建邏輯</text>
<text x="96" y="1001" font-size="17.5" fill="#a9c9e8" font-weight="400" text-anchor="start">從可能去日本，變成靠近台灣附近海域</text>
</g>
<g class="tl-item" style="animation-delay:36.00s">
<rect class="tl-hl" style="animation-delay:36.00s" x="34" y="1012" width="480" height="84" rx="12" fill="#16456f" stroke="#39a8e0" stroke-width="1.5"/>
<circle class="tl-halo" style="animation-delay:36.00s" cx="64" cy="1036" r="22" fill="none" stroke="#38bdf8"/>
<circle cx="64" cy="1036" r="16" fill="#12395f" stroke="#38bdf8" stroke-width="2.5"/>
<text x="64" y="1042" font-size="18" fill="#d8efff" font-weight="700" text-anchor="middle">10</text>
<text x="96" y="1029" font-size="19" fill="#fbbf24" font-weight="700" text-anchor="start">7/31 00:38</text>
<text x="96" y="1051" font-size="21.5" fill="#ffffff" font-weight="700" text-anchor="start">翻轉原因講清楚</text>
<text x="96" y="1072" font-size="17.5" fill="#a9c9e8" font-weight="400" text-anchor="start">高層槽快速填塞、北退，只造成短暫減速</text>
<text x="96" y="1091" font-size="17.5" fill="#a9c9e8" font-weight="400" text-anchor="start">約 35N 形成完整東西向高壓脊</text>
</g>
<g class="tl-item" style="animation-delay:40.00s">
<rect class="tl-hl" style="animation-delay:40.00s" x="34" y="1102" width="480" height="84" rx="12" fill="#16456f" stroke="#39a8e0" stroke-width="1.5"/>
<circle class="tl-halo" style="animation-delay:40.00s" cx="64" cy="1126" r="22" fill="none" stroke="#38bdf8"/>
<circle cx="64" cy="1126" r="16" fill="#12395f" stroke="#38bdf8" stroke-width="2.5"/>
<text x="64" y="1132" font-size="18" fill="#d8efff" font-weight="700" text-anchor="middle">11</text>
<text x="96" y="1119" font-size="19" fill="#fbbf24" font-weight="700" text-anchor="start">7/31 12:54</text>
<text x="96" y="1141" font-size="21.5" fill="#ffffff" font-weight="700" text-anchor="start">西折時間再提前</text>
<text x="96" y="1162" font-size="17.5" fill="#a9c9e8" font-weight="400" text-anchor="start">西折時間由 72 小時提前到約 60 小時</text>
<text x="96" y="1181" font-size="17.5" fill="#a9c9e8" font-weight="400" text-anchor="start">剩下的問題是：往西走得有多快</text>
</g>
<g class="tl-item" style="animation-delay:44.00s">
<rect class="tl-hl" style="animation-delay:44.00s" x="34" y="1192" width="480" height="84" rx="12" fill="#16456f" stroke="#39a8e0" stroke-width="1.5"/>
<circle class="tl-halo" style="animation-delay:44.00s" cx="64" cy="1216" r="22" fill="none" stroke="#38bdf8"/>
<circle cx="64" cy="1216" r="16" fill="#12395f" stroke="#38bdf8" stroke-width="2.5"/>
<text x="64" y="1222" font-size="18" fill="#d8efff" font-weight="700" text-anchor="middle">12</text>
<text x="96" y="1209" font-size="19" fill="#fbbf24" font-weight="700" text-anchor="start">7/31 23:41</text>
<text x="96" y="1231" font-size="21.5" fill="#ffffff" font-weight="700" text-anchor="start">路徑續收斂、強度再分歧</text>
<text x="96" y="1252" font-size="17.5" fill="#a9c9e8" font-weight="400" text-anchor="start">JTWC 稱全期一致性高，系集持續南修</text>
<text x="96" y="1271" font-size="17.5" fill="#a9c9e8" font-weight="400" text-anchor="start">第三次眼牆置換，模式差距約 18 公尺／秒</text>
</g>
<g class="tl-item" style="animation-delay:48.00s">
<rect class="tl-hl" style="animation-delay:48.00s" x="34" y="1282" width="480" height="84" rx="12" fill="#16456f" stroke="#39a8e0" stroke-width="1.5"/>
<circle class="tl-halo" style="animation-delay:48.00s" cx="64" cy="1306" r="22" fill="none" stroke="#38bdf8"/>
<circle cx="64" cy="1306" r="16" fill="#12395f" stroke="#38bdf8" stroke-width="2.5"/>
<text x="64" y="1312" font-size="18" fill="#d8efff" font-weight="700" text-anchor="middle">13</text>
<text x="96" y="1299" font-size="19" fill="#fbbf24" font-weight="700" text-anchor="start">8/1 12:23</text>
<text x="96" y="1321" font-size="21.5" fill="#ffffff" font-weight="700" text-anchor="start">西轉已成定局</text>
<text x="96" y="1342" font-size="17.5" fill="#a9c9e8" font-weight="400" text-anchor="start">所有模式同意西轉，朝琉球方向前進</text>
<text x="96" y="1361" font-size="17.5" fill="#a9c9e8" font-weight="400" text-anchor="start">焦點轉為移動速度與減弱幅度</text>
</g>
<g class="tl-item" style="animation-delay:52.00s">
<rect class="tl-hl" style="animation-delay:52.00s" x="34" y="1372" width="480" height="84" rx="12" fill="#16456f" stroke="#39a8e0" stroke-width="1.5"/>
<circle class="tl-halo" style="animation-delay:52.00s" cx="64" cy="1396" r="22" fill="none" stroke="#38bdf8"/>
<circle cx="64" cy="1396" r="16" fill="#12395f" stroke="#38bdf8" stroke-width="2.5"/>
<text x="64" y="1402" font-size="18" fill="#d8efff" font-weight="700" text-anchor="middle">14</text>
<text x="96" y="1389" font-size="19" fill="#fbbf24" font-weight="700" text-anchor="start">8/2 01:02</text>
<text x="96" y="1411" font-size="21.5" fill="#ffffff" font-weight="700" text-anchor="start">換眼完成，進入減弱階段</text>
<text x="96" y="1432" font-size="17.5" fill="#a9c9e8" font-weight="400" text-anchor="start">形成直徑約 93 公里的大型清晰風眼</text>
<text x="96" y="1451" font-size="17.5" fill="#a9c9e8" font-weight="400" text-anchor="start">高壓重建成為實際導引，減弱趨勢確立</text>
</g>
<g class="tl-item" style="animation-delay:56.00s">
<rect class="tl-hl" style="animation-delay:56.00s" x="34" y="1462" width="480" height="84" rx="12" fill="#16456f" stroke="#39a8e0" stroke-width="1.5"/>
<circle class="tl-halo" style="animation-delay:56.00s" cx="64" cy="1486" r="22" fill="none" stroke="#38bdf8"/>
<circle cx="64" cy="1486" r="16" fill="#12395f" stroke="#38bdf8" stroke-width="2.5"/>
<text x="64" y="1492" font-size="18" fill="#d8efff" font-weight="700" text-anchor="middle">15</text>
<text x="96" y="1479" font-size="19" fill="#fbbf24" font-weight="700" text-anchor="start">8/2 11:34</text>
<text x="96" y="1501" font-size="21.5" fill="#ffffff" font-weight="700" text-anchor="start">第四次換眼可能開始</text>
<text x="96" y="1522" font-size="17.5" fill="#a9c9e8" font-weight="400" text-anchor="start">方向不變，後期因高壓遭侵蝕而減速</text>
<text x="96" y="1541" font-size="17.5" fill="#a9c9e8" font-weight="400" text-anchor="start">持續減弱已是 JTWC 明確主線</text>
</g>
<g class="tl-item" style="animation-delay:60.00s">
<rect class="tl-hl" style="animation-delay:60.00s" x="34" y="1552" width="480" height="84" rx="12" fill="#16456f" stroke="#39a8e0" stroke-width="1.5"/>
<circle class="tl-halo" style="animation-delay:60.00s" cx="64" cy="1576" r="22" fill="none" stroke="#38bdf8"/>
<circle cx="64" cy="1576" r="16" fill="#12395f" stroke="#38bdf8" stroke-width="2.5"/>
<text x="64" y="1582" font-size="18" fill="#d8efff" font-weight="700" text-anchor="middle">16</text>
<text x="96" y="1569" font-size="19" fill="#fbbf24" font-weight="700" text-anchor="start">8/3 01:06</text>
<text x="96" y="1591" font-size="21.5" fill="#ffffff" font-weight="700" text-anchor="start">換眼中段，鎖定沖繩以北</text>
<text x="96" y="1612" font-size="17.5" fill="#a9c9e8" font-weight="400" text-anchor="start">第四次換眼進入中段，預期明顯減弱</text>
<text x="96" y="1631" font-size="17.5" fill="#a9c9e8" font-weight="400" text-anchor="start">幾乎鎖定沖繩以北，只剩抵達時間差異</text>
</g>
<g class="tl-item" style="animation-delay:64.00s">
<rect class="tl-hl" style="animation-delay:64.00s" x="34" y="1642" width="480" height="84" rx="12" fill="#16456f" stroke="#39a8e0" stroke-width="1.5"/>
<circle class="tl-halo" style="animation-delay:64.00s" cx="64" cy="1666" r="22" fill="none" stroke="#38bdf8"/>
<circle cx="64" cy="1666" r="16" fill="#12395f" stroke="#38bdf8" stroke-width="2.5"/>
<text x="64" y="1672" font-size="18" fill="#d8efff" font-weight="700" text-anchor="middle">17</text>
<text x="96" y="1659" font-size="19" fill="#fbbf24" font-weight="700" text-anchor="start">8/3 11:20</text>
<text x="96" y="1681" font-size="21.5" fill="#ffffff" font-weight="700" text-anchor="start">減弱已實際發生</text>
<text x="96" y="1702" font-size="17.5" fill="#a9c9e8" font-weight="400" text-anchor="start">24 小時內風速下降約 13 公尺／秒</text>
<text x="96" y="1721" font-size="17.5" fill="#a9c9e8" font-weight="400" text-anchor="start">後期出現再增強的少數解，JTWC 未採用</text>
<rect x="426" y="1644" width="76" height="26" rx="13" fill="#fbbf24" fill-opacity="0.18" stroke="#fbbf24"/>
<text x="464" y="1663" font-size="16" fill="#fcd34d" font-weight="700" text-anchor="middle">最新</text>
</g>
<rect x="548" y="128" width="824" height="476" rx="18" fill="#0c2540" stroke="#1c4a78" stroke-width="1.5"/>
<text x="572" y="170" font-size="26" fill="#7dd3fc" font-weight="700" text-anchor="start">B｜路徑預測怎麼變</text>
<text x="798" y="170" font-size="18" fill="#7d9fbf" font-weight="400" text-anchor="start">（示意圖，非實際預報路徑）</text>
<clipPath id="mapclip"><rect x="560" y="182" width="800" height="414" rx="10"/></clipPath>
<rect x="560" y="182" width="800" height="414" rx="10" fill="#08203a" stroke="#1a4066"/>
<g clip-path="url(#mapclip)">
<line x1="660" y1="182" x2="660" y2="596" stroke="#14375c" stroke-width="1"/>
<line x1="760" y1="182" x2="760" y2="596" stroke="#14375c" stroke-width="1"/>
<line x1="860" y1="182" x2="860" y2="596" stroke="#14375c" stroke-width="1"/>
<line x1="960" y1="182" x2="960" y2="596" stroke="#14375c" stroke-width="1"/>
<line x1="1060" y1="182" x2="1060" y2="596" stroke="#14375c" stroke-width="1"/>
<line x1="1160" y1="182" x2="1160" y2="596" stroke="#14375c" stroke-width="1"/>
<line x1="1260" y1="182" x2="1260" y2="596" stroke="#14375c" stroke-width="1"/>
<line x1="560" y1="247" x2="1360" y2="247" stroke="#14375c" stroke-width="1"/>
<line x1="560" y1="312" x2="1360" y2="312" stroke="#14375c" stroke-width="1"/>
<line x1="560" y1="377" x2="1360" y2="377" stroke="#14375c" stroke-width="1"/>
<line x1="560" y1="442" x2="1360" y2="442" stroke="#14375c" stroke-width="1"/>
<line x1="560" y1="507" x2="1360" y2="507" stroke="#14375c" stroke-width="1"/>
<line x1="560" y1="572" x2="1360" y2="572" stroke="#14375c" stroke-width="1"/>
<path d="M560,182 L700,206 L680,245 L700,277 L680,310 L690,336 L660,362 L600,414 L560,433 Z" fill="#173a56" stroke="#2f6b95" stroke-width="1.6"/>
<path d="M880,290 L940,268 L1000,242 L1060,204 L1096,190 L1110,204 L1072,224 L1016,264 L952,290 L892,308 Z" fill="#173a56" stroke="#2f6b95" stroke-width="1.6"/>
<path d="M856,296 L886,290 L892,316 L866,328 L848,312 Z" fill="#173a56" stroke="#2f6b95" stroke-width="1.6"/>
<path d="M674,396 L689,404 L691,424 L680,442 L669,428 L667,407 Z" fill="#1d4a68" stroke="#4b93bd" stroke-width="1.8"/>
<circle cx="862" cy="348" r="5" fill="#2f6b95"/>
<circle cx="842" cy="361" r="5" fill="#2f6b95"/>
<circle cx="822" cy="380" r="7" fill="#2f6b95"/>
<circle cx="802" cy="387" r="5" fill="#2f6b95"/>
<circle cx="772" cy="400" r="5" fill="#2f6b95"/>
<circle cx="744" cy="407" r="4" fill="#2f6b95"/>
<circle cx="730" cy="411" r="4" fill="#2f6b95"/>
</g>
<text x="576" y="372" font-size="20" fill="#6f9dc0" font-weight="500" text-anchor="start">中國東部</text>
<text x="946" y="240" font-size="20" fill="#6f9dc0" font-weight="500" text-anchor="start">日本（本州）</text>
<text x="650" y="466" font-size="21" fill="#8ed0f0" font-weight="700" text-anchor="start">台灣</text>
<text x="756" y="438" font-size="18" fill="#6f9dc0" font-weight="400" text-anchor="start">琉球群島</text>
<text x="826" y="300" font-size="18" fill="#6ee7b7" font-weight="700" text-anchor="middle">預測從沖繩以北通過</text>
<g class="mapTrough">
<path d="M1128,224 L1180,286 L1232,224" fill="none" stroke="#f472b6" stroke-width="3.5" stroke-dasharray="9 7" stroke-linecap="round"/>
<text x="1180" y="210" font-size="20" fill="#f9a8d4" font-weight="700" text-anchor="middle">高層槽</text>
</g>
<g>
<circle class="hpulse" cx="1300" cy="442" r="46" fill="url(#hg)"/>
<circle cx="1300" cy="442" r="26" fill="#0c3050" stroke="#38bdf8" stroke-width="2.5"/>
<text x="1300" y="452" font-size="28" fill="#8ee0ff" font-weight="700" text-anchor="middle">H</text>
<text x="1300" y="488" font-size="17" fill="#8fb3d4" font-weight="500" text-anchor="middle">東北側高壓</text>
</g>
<g>
<circle class="hpulse" cx="816" cy="330" r="46" fill="url(#hg)"/>
<circle cx="816" cy="330" r="26" fill="#0c3050" stroke="#38bdf8" stroke-width="2.5"/>
<text x="816" y="340" font-size="28" fill="#8ee0ff" font-weight="700" text-anchor="middle">H</text>
<text x="816" y="376" font-size="17" fill="#8fb3d4" font-weight="500" text-anchor="middle">西北側高壓</text>
</g>
<path id="p1" class="trk" style="animation-delay:0s" d="M1180,544 C1120,520 1058,492 1020,466 C982,438 980,410 984,384 C990,340 1012,300 1052,262" stroke="#f472b6" stroke-width="5" stroke-dasharray="900" marker-end="url(#ar-p)"/>
<path id="p2" class="trk" style="animation-delay:1.6s" d="M1180,544 C1122,522 1084,504 1060,486 C1002,466 962,446 940,432 C900,414 862,398 800,374" stroke="#fbbf24" stroke-width="5" marker-end="url(#ar-o)"/>
<path id="p3" class="trk" style="animation-delay:3.2s" d="M1180,544 C1122,524 1082,508 1060,494 C1000,472 962,458 940,449 C880,430 820,414 760,409 C722,406 700,407 682,408" stroke="#34d399" stroke-width="7" marker-end="url(#ar-g)"/>
<circle cx="1180" cy="544" r="7" fill="#ffffff"/>
<text x="1196" y="566" font-size="18" fill="#cbe4ff" font-weight="500" text-anchor="start">初始位置</text>
<g class="tyicon">
<g class="spin">
<circle cx="0" cy="0" r="17" fill="url(#eyeg)"/>
<path d="M0,-16 C10,-13 15,-5 8,0 C2,4 -2,1 0,-3" fill="none" stroke="#e8f7ff" stroke-width="3.4" stroke-linecap="round"/>
<path d="M0,16 C-10,13 -15,5 -8,0 C-2,-4 2,-1 0,3" fill="none" stroke="#e8f7ff" stroke-width="3.4" stroke-linecap="round"/>
<circle cx="0" cy="0" r="3.4" fill="#ffffff"/>
</g>
<animateMotion dur="10s" repeatCount="indefinite" keyPoints="0;0;1" keyTimes="0;0.3;1" calcMode="linear"><mpath xlink:href="#p3"/></animateMotion>
</g>
<rect x="568" y="192" width="316" height="126" rx="12" fill="#0a2743" fill-opacity="0.94" stroke="#2b5f8d"/>
<line x1="586" y1="218" x2="626" y2="218" stroke="#f472b6" stroke-width="5" stroke-linecap="round"/>
<text x="638" y="224" font-size="19" fill="#cfe4f7" font-weight="500" text-anchor="start">① 最早：可能偏日本方向</text>
<line x1="586" y1="252" x2="626" y2="252" stroke="#fbbf24" stroke-width="5" stroke-linecap="round"/>
<text x="638" y="258" font-size="19" fill="#cfe4f7" font-weight="500" text-anchor="start">② 過渡：72 小時後分歧</text>
<line x1="586" y1="286" x2="626" y2="286" stroke="#34d399" stroke-width="5" stroke-linecap="round"/>
<text x="638" y="292" font-size="19" fill="#cfe4f7" font-weight="500" text-anchor="start">③ 最終：先西北、之後偏西</text>
<g class="trk-lbl" style="animation-delay:3.2s">
<text x="700" y="382" font-size="20" fill="#6ee7b7" font-weight="700" text-anchor="middle">共識：西轉已定，朝琉球西行</text>
</g>
<path class="blink" d="M902,438 L902,470" stroke="#fbbf24" stroke-width="3" marker-end="url(#ar-o)"/>
<text x="914" y="480" font-size="18" fill="#fcd34d" font-weight="500" text-anchor="start">系集平均持續南修</text>
<text x="1156" y="400" font-size="17" fill="#9fd8f7" font-weight="500" text-anchor="middle">約 36 小時後</text>
<text x="1156" y="422" font-size="17" fill="#9fd8f7" font-weight="500" text-anchor="middle">朝鮮半島高壓脊接手</text>
<rect x="548" y="620" width="824" height="208" rx="18" fill="#0c2540" stroke="#1c4a78" stroke-width="1.5"/>
<text x="572" y="662" font-size="26" fill="#7dd3fc" font-weight="700" text-anchor="start">C｜路徑預測怎麼收斂</text>
<text x="868" y="662" font-size="18" fill="#7d9fbf" font-weight="400" text-anchor="start">分歧一路縮小</text>
<g class="fbox" style="animation-delay:0.0s">
<rect x="560" y="682" width="142" height="112" rx="12" fill="#123a5e" stroke="#7dd3fc" stroke-width="1.8"/>
<text x="631.0" y="712" font-size="20" fill="#7dd3fc" font-weight="700" text-anchor="middle">①</text>
<text x="631.0" y="744" font-size="19" fill="#ffffff" font-weight="500" text-anchor="middle">可能往日本</text>
<text x="631.0" y="770" font-size="19" fill="#ffffff" font-weight="500" text-anchor="middle">方向轉</text>
</g>
<path class="farrow" style="animation-delay:0.0s" d="M705,738 L721,738" stroke="#7dd3fc" stroke-width="3.5" marker-end="url(#ar-c)"/>
<g class="fbox" style="animation-delay:2.4s">
<rect x="724" y="682" width="142" height="112" rx="12" fill="#123a5e" stroke="#7dd3fc" stroke-width="1.8"/>
<text x="795.0" y="712" font-size="20" fill="#7dd3fc" font-weight="700" text-anchor="middle">②</text>
<text x="795.0" y="744" font-size="19" fill="#ffffff" font-weight="500" text-anchor="middle">72 小時後</text>
<text x="795.0" y="770" font-size="19" fill="#ffffff" font-weight="500" text-anchor="middle">分成兩派</text>
</g>
<path class="farrow" style="animation-delay:2.4s" d="M869,738 L885,738" stroke="#7dd3fc" stroke-width="3.5" marker-end="url(#ar-c)"/>
<g class="fbox" style="animation-delay:4.8s">
<rect x="888" y="682" width="142" height="112" rx="12" fill="#123a5e" stroke="#7dd3fc" stroke-width="1.8"/>
<text x="959.0" y="712" font-size="20" fill="#7dd3fc" font-weight="700" text-anchor="middle">③</text>
<text x="959.0" y="744" font-size="19" fill="#ffffff" font-weight="500" text-anchor="middle">實際更偏南</text>
<text x="959.0" y="770" font-size="19" fill="#ffffff" font-weight="500" text-anchor="middle">整體西修</text>
</g>
<path class="farrow" style="animation-delay:4.8s" d="M1033,738 L1049,738" stroke="#7dd3fc" stroke-width="3.5" marker-end="url(#ar-c)"/>
<g class="fbox" style="animation-delay:7.2s">
<rect x="1052" y="682" width="142" height="112" rx="12" fill="#123a5e" stroke="#7dd3fc" stroke-width="1.8"/>
<text x="1123.0" y="712" font-size="20" fill="#7dd3fc" font-weight="700" text-anchor="middle">④</text>
<text x="1123.0" y="744" font-size="19" fill="#ffffff" font-weight="500" text-anchor="middle">差異縮小成</text>
<text x="1123.0" y="770" font-size="19" fill="#ffffff" font-weight="500" text-anchor="middle">西折早或晚</text>
</g>
<path class="farrow" style="animation-delay:7.2s" d="M1197,738 L1213,738" stroke="#7dd3fc" stroke-width="3.5" marker-end="url(#ar-c)"/>
<g class="fbox" style="animation-delay:9.6s">
<rect x="1216" y="682" width="142" height="112" rx="12" fill="#123a5e" stroke="#7dd3fc" stroke-width="1.8"/>
<text x="1287.0" y="712" font-size="20" fill="#7dd3fc" font-weight="700" text-anchor="middle">⑤</text>
<text x="1287.0" y="744" font-size="19" fill="#ffffff" font-weight="500" text-anchor="middle">西轉定局</text>
<text x="1287.0" y="770" font-size="19" fill="#ffffff" font-weight="500" text-anchor="middle">剩速度快慢</text>
</g>
<rect x="548" y="844" width="824" height="208" rx="18" fill="#0c2540" stroke="#1c4a78" stroke-width="1.5"/>
<text x="572" y="886" font-size="26" fill="#fb923c" font-weight="700" text-anchor="start">D｜強度預測怎麼反覆</text>
<text x="868" y="886" font-size="18" fill="#7d9fbf" font-weight="400" text-anchor="start">三次眼牆置換，越換越不確定</text>
<g class="fbox" style="animation-delay:0.0s">
<rect x="560" y="906" width="142" height="112" rx="12" fill="#123a5e" stroke="#fb923c" stroke-width="1.8"/>
<text x="631.0" y="936" font-size="20" fill="#fb923c" font-weight="700" text-anchor="middle">①</text>
<text x="631.0" y="968" font-size="19" fill="#ffffff" font-weight="500" text-anchor="middle">原本就估</text>
<text x="631.0" y="994" font-size="19" fill="#ffffff" font-weight="500" text-anchor="middle">會快速增強</text>
</g>
<path class="farrow" style="animation-delay:0.0s" d="M705,962 L721,962" stroke="#fb923c" stroke-width="3.5" marker-end="url(#ar-o)"/>
<g class="fbox" style="animation-delay:2.4s">
<rect x="724" y="906" width="142" height="112" rx="12" fill="#123a5e" stroke="#fb923c" stroke-width="1.8"/>
<text x="795.0" y="936" font-size="20" fill="#fb923c" font-weight="700" text-anchor="middle">②</text>
<text x="795.0" y="968" font-size="19" fill="#ffffff" font-weight="500" text-anchor="middle">實況超預期</text>
<text x="795.0" y="994" font-size="19" fill="#ffffff" font-weight="500" text-anchor="middle">強度上修</text>
</g>
<path class="farrow" style="animation-delay:2.4s" d="M869,962 L885,962" stroke="#fb923c" stroke-width="3.5" marker-end="url(#ar-o)"/>
<g class="fbox" style="animation-delay:4.8s">
<rect x="888" y="906" width="142" height="112" rx="12" fill="#123a5e" stroke="#fb923c" stroke-width="1.8"/>
<text x="959.0" y="936" font-size="20" fill="#fb923c" font-weight="700" text-anchor="middle">③</text>
<text x="959.0" y="968" font-size="19" fill="#ffffff" font-weight="500" text-anchor="middle">首次眼牆置換</text>
<text x="959.0" y="994" font-size="19" fill="#ffffff" font-weight="500" text-anchor="middle">短暫下修</text>
</g>
<path class="farrow" style="animation-delay:4.8s" d="M1033,962 L1049,962" stroke="#fb923c" stroke-width="3.5" marker-end="url(#ar-o)"/>
<g class="fbox" style="animation-delay:7.2s">
<rect x="1052" y="906" width="142" height="112" rx="12" fill="#123a5e" stroke="#fb923c" stroke-width="1.8"/>
<text x="1123.0" y="936" font-size="20" fill="#fb923c" font-weight="700" text-anchor="middle">④</text>
<text x="1123.0" y="968" font-size="19" fill="#ffffff" font-weight="500" text-anchor="middle">換眼後</text>
<text x="1123.0" y="994" font-size="19" fill="#ffffff" font-weight="500" text-anchor="middle">再度增強</text>
</g>
<path class="farrow" style="animation-delay:7.2s" d="M1197,962 L1213,962" stroke="#fb923c" stroke-width="3.5" marker-end="url(#ar-o)"/>
<g class="fbox" style="animation-delay:9.6s">
<rect x="1216" y="906" width="142" height="112" rx="12" fill="#123a5e" stroke="#fb923c" stroke-width="1.8"/>
<text x="1287.0" y="936" font-size="20" fill="#fb923c" font-weight="700" text-anchor="middle">⑤</text>
<text x="1287.0" y="968" font-size="19" fill="#ffffff" font-weight="500" text-anchor="middle">四次置換發生</text>
<text x="1287.0" y="994" font-size="19" fill="#ffffff" font-weight="500" text-anchor="middle">實際減弱</text>
</g>
<rect x="548" y="1068" width="824" height="502" rx="18" fill="#0c2540" stroke="#1c4a78" stroke-width="1.5"/>
<text x="572" y="1110" font-size="26" fill="#34d399" font-weight="700" text-anchor="start">E｜為什麼會西折：高壓補回來了</text>
<text x="968" y="1110" font-size="18" fill="#7d9fbf" font-weight="400" text-anchor="start">H＝高壓　槽＝高層槽</text>
<g class="step" style="animation-delay:0s">
<rect x="562" y="1130" width="254" height="440" rx="14" fill="#0e2f4f" stroke="#f472b6" stroke-width="1.8"/>
<rect x="562" y="1130" width="254" height="46" rx="14" fill="#f472b6" fill-opacity="0.18"/>
<circle cx="592" cy="1153" r="15" fill="#f472b6"/>
<text x="592" y="1160" font-size="19" fill="#06243c" font-weight="700" text-anchor="middle">1</text>
<text x="618" y="1161" font-size="23" fill="#ffffff" font-weight="700" text-anchor="start">原本可能</text>
<rect x="576" y="1186" width="226" height="176" rx="10" fill="#08203a" stroke="#1a4066"/>
<path class="s2trough" style="animation:none" d="M606,1216 L689,1278 L772,1216" fill="none" stroke="#f472b6" stroke-width="3.5" stroke-dasharray="9 7" stroke-linecap="round"/>
<text x="689" y="1208" font-size="22" fill="#f9a8d4" font-weight="700" text-anchor="middle">槽</text>
<path class="s1arrow" style="animation-delay:0s" d="M689,1334 L689,1286" fill="none" stroke="#34d399" stroke-width="4" marker-end="url(#ar-g)"/>
<text x="700" y="1318" font-size="16" fill="#6ee7b7" font-weight="500" text-anchor="start">北轉通道？</text>
<circle cx="689" cy="1342" r="8" fill="#e8f7ff"/>
<text x="578" y="1394" font-size="18.5" fill="#c6dcf0" font-weight="500" text-anchor="start">本州東方有高層槽</text>
<text x="578" y="1428" font-size="18.5" fill="#c6dcf0" font-weight="500" text-anchor="start">若夠深、夠久</text>
<text x="578" y="1462" font-size="18.5" fill="#c6dcf0" font-weight="500" text-anchor="start">可能打開北轉通道</text>
<text x="578" y="1496" font-size="18.5" fill="#c6dcf0" font-weight="500" text-anchor="start">→ 白海豚往日本</text>
</g>
<g class="step" style="animation-delay:5s">
<rect x="835" y="1130" width="254" height="440" rx="14" fill="#0e2f4f" stroke="#fbbf24" stroke-width="1.8"/>
<rect x="835" y="1130" width="254" height="46" rx="14" fill="#fbbf24" fill-opacity="0.18"/>
<circle cx="865" cy="1153" r="15" fill="#fbbf24"/>
<text x="865" y="1160" font-size="19" fill="#06243c" font-weight="700" text-anchor="middle">2</text>
<text x="891" y="1161" font-size="23" fill="#ffffff" font-weight="700" text-anchor="start">後來發生</text>
<rect x="849" y="1186" width="226" height="176" rx="10" fill="#08203a" stroke="#1a4066"/>
<g class="s2trough">
<path d="M879,1220 L955,1278 L1031,1220" fill="none" stroke="#f472b6" stroke-width="3.5" stroke-dasharray="9 7" stroke-linecap="round"/>
<text x="955" y="1212" font-size="22" fill="#f9a8d4" font-weight="700" text-anchor="middle">槽</text>
</g>
<path d="M985,1246 L1043,1212" fill="none" stroke="#fbbf24" stroke-width="3" stroke-dasharray="6 6" marker-end="url(#ar-o)" class="blink"/>
<text x="985" y="1314" font-size="17" fill="#fcd34d" font-weight="500" text-anchor="middle">只是短暫減速</text>
<circle cx="931" cy="1338" r="8" fill="#e8f7ff"/>
<path d="M941,1338 L987,1338" fill="none" stroke="#cbe4ff" stroke-width="3" marker-end="url(#ar-w)"/>
<text x="851" y="1394" font-size="18.5" fill="#c6dcf0" font-weight="500" text-anchor="start">高層槽快速填塞、北退</text>
<text x="851" y="1428" font-size="18.5" fill="#c6dcf0" font-weight="500" text-anchor="start">只造成短暫減速</text>
<text x="851" y="1462" font-size="18.5" fill="#c6dcf0" font-weight="500" text-anchor="start">（約 48～72 小時）</text>
<text x="851" y="1496" font-size="18.5" fill="#c6dcf0" font-weight="500" text-anchor="start">沒能真的把它拉北</text>
</g>
<g class="step" style="animation-delay:10s">
<rect x="1108" y="1130" width="254" height="440" rx="14" fill="#0e2f4f" stroke="#34d399" stroke-width="1.8"/>
<rect x="1108" y="1130" width="254" height="46" rx="14" fill="#34d399" fill-opacity="0.18"/>
<circle cx="1138" cy="1153" r="15" fill="#34d399"/>
<text x="1138" y="1160" font-size="19" fill="#06243c" font-weight="700" text-anchor="middle">3</text>
<text x="1164" y="1161" font-size="23" fill="#ffffff" font-weight="700" text-anchor="start">最新共識</text>
<rect x="1122" y="1186" width="226" height="176" rx="10" fill="#08203a" stroke="#1a4066"/>
<circle class="s3h" cx="1174" cy="1232" r="34" fill="url(#hg)"/>
<circle cx="1174" cy="1232" r="20" fill="#0c3050" stroke="#38bdf8" stroke-width="2.2"/>
<text x="1174" y="1240" font-size="23" fill="#8ee0ff" font-weight="700" text-anchor="middle">H</text>
<circle class="s3h" cx="1298" cy="1226" r="34" fill="url(#hg)"/>
<circle cx="1298" cy="1226" r="20" fill="#0c3050" stroke="#38bdf8" stroke-width="2.2"/>
<text x="1298" y="1234" font-size="23" fill="#8ee0ff" font-weight="700" text-anchor="middle">H</text>
<path d="M1194,1230 L1278,1228" stroke="#38bdf8" stroke-width="3" stroke-dasharray="8 6" class="blink"/>
<text x="1235" y="1278" font-size="17" fill="#9fd8f7" font-weight="500" text-anchor="middle">高壓脊（約 35N）</text>
<path class="s3arrow" d="M1316,1326 L1150,1326" fill="none" stroke="#34d399" stroke-width="5" marker-end="url(#ar-g)"/>
<circle cx="1322" cy="1326" r="8" fill="#e8f7ff"/>
<text x="1235" y="1354" font-size="19" fill="#6ee7b7" font-weight="700" text-anchor="middle">偏西</text>
<text x="1124" y="1394" font-size="18.5" fill="#c6dcf0" font-weight="500" text-anchor="start">東北側＋西北側高壓重建</text>
<text x="1124" y="1428" font-size="18.5" fill="#c6dcf0" font-weight="500" text-anchor="start">約 35N 連成東西向高壓脊</text>
<text x="1124" y="1462" font-size="18.5" fill="#c6dcf0" font-weight="500" text-anchor="start">導引氣流轉為偏西</text>
<text x="1124" y="1496" font-size="18.5" fill="#c6dcf0" font-weight="500" text-anchor="start">約 60 小時後開始西折</text>
</g>
<rect x="548" y="1586" width="824" height="164" rx="18" fill="#0c2540" stroke="#1c4a78" stroke-width="1.5"/>
<text x="572" y="1622" font-size="25" fill="#fb923c" font-weight="700" text-anchor="start">G｜後期強度三種劇本</text>
<text x="806" y="1622" font-size="18" fill="#8fb3d4" font-weight="500" text-anchor="start">最大風速（公尺／秒）</text>
<text x="1000" y="1622" font-size="18" fill="#7d9fbf" font-weight="500" text-anchor="start">巔峰曾約 85～93</text>
<text x="572" y="1652" font-size="18" fill="#cfe4f7" font-weight="700" text-anchor="start">JTWC 正式預報</text>
<rect x="740" y="1636" width="420" height="20" rx="6" fill="#0e2f4f"/>
<rect x="740" y="1636" width="184" height="20" rx="6" fill="#34d399" fill-opacity="0.85"/>
<text x="934" y="1652" font-size="17" fill="#34d399" font-weight="700" text-anchor="start">約 44</text>
<text x="1246" y="1652" font-size="16" fill="#8fb3d4" font-weight="500" text-anchor="start">採用</text>
<text x="572" y="1684" font-size="18" fill="#cfe4f7" font-weight="700" text-anchor="start">HAFS-A</text>
<rect x="740" y="1668" width="420" height="20" rx="6" fill="#0e2f4f"/>
<rect x="740" y="1668" width="214" height="20" rx="6" fill="#fbbf24" fill-opacity="0.85"/>
<text x="964" y="1684" font-size="17" fill="#fbbf24" font-weight="700" text-anchor="start">51 以上</text>
<text x="1246" y="1684" font-size="16" fill="#8fb3d4" font-weight="500" text-anchor="start">內核重組</text>
<text x="572" y="1716" font-size="18" fill="#cfe4f7" font-weight="700" text-anchor="start">COAMPS-TC</text>
<rect x="740" y="1700" width="420" height="20" rx="6" fill="#0e2f4f"/>
<rect x="740" y="1700" width="281" height="20" rx="6" fill="#f472b6" fill-opacity="0.85"/>
<text x="1031" y="1716" font-size="17" fill="#f472b6" font-weight="700" text-anchor="start">約 67</text>
<text x="1246" y="1716" font-size="16" fill="#8fb3d4" font-weight="500" text-anchor="start">降低權重</text>
<text x="572" y="1738" font-size="17" fill="#fcd34d" font-weight="500" text-anchor="start">強度預報信心：前 3 天中等、後 2 天低</text>
<rect x="28" y="1766" width="1344" height="260" rx="18" fill="#0c2540" stroke="#1c4a78" stroke-width="1.5"/>
<text x="52" y="1808" font-size="26" fill="#fbbf24" font-weight="700" text-anchor="start">F｜最新一報（8/3 11:20）：減弱已實際發生</text>
<g class="blink">
<rect x="640" y="1786" width="78" height="30" rx="15" fill="#fbbf24" fill-opacity="0.2" stroke="#fbbf24"/>
<text x="679" y="1807" font-size="18" fill="#fcd34d" font-weight="700" text-anchor="middle">最新</text>
</g>
<line x1="712" y1="1824" x2="712" y2="1984" stroke="#1c4a78" stroke-width="1.5"/>
<text x="52" y="1850" font-size="22" fill="#7dd3fc" font-weight="700" text-anchor="start">路徑：方向高度一致，只差快慢</text>
<text x="52" y="1882" font-size="17.5" fill="#c6dcf0" font-weight="500" text-anchor="start">・持續向西北西朝琉球群島移動；約 36 小時後朝鮮半島高壓接手</text>
<text x="52" y="1906" font-size="17.5" fill="#c6dcf0" font-weight="500" text-anchor="start">・東西伯利亞高層槽把高壓壓平，導引氣壓梯度減弱</text>
<text x="52" y="1930" font-size="17.5" fill="#c6dcf0" font-weight="500" text-anchor="start">・移速由 36 小時時速約 22 公里，放慢到 120 小時約 15 公里</text>
<text x="52" y="1954" font-size="17.5" fill="#c6dcf0" font-weight="500" text-anchor="start">・96 小時快慢差約 315 公里，120 小時擴大到約 482 公里</text>
<text x="52" y="1978" font-size="17.5" fill="#c6dcf0" font-weight="500" text-anchor="start">・較快 ECMWF、NAVGEM ／ 較慢 GFS、DeepMind（高壓遭較多侵蝕）</text>
<text x="736" y="1850" font-size="22" fill="#fb923c" font-weight="700" text-anchor="start">強度：內核結構正在惡化</text>
<text x="736" y="1882" font-size="17.5" fill="#c6dcf0" font-weight="500" text-anchor="start">・SSMIS 確認第四次換眼開始，外側環狀結構完全包圍內眼牆</text>
<text x="736" y="1906" font-size="17.5" fill="#c6dcf0" font-weight="500" text-anchor="start">・風眼被雲填塞、雲頂變暖，顯示內核惡化</text>
<text x="736" y="1930" font-size="17.5" fill="#c6dcf0" font-weight="500" text-anchor="start">・過去 24 小時最大風速下降約 13 公尺／秒</text>
<text x="736" y="1954" font-size="17.5" fill="#c6dcf0" font-weight="500" text-anchor="start">・JTWC 下修至約 51 公尺／秒，預測續弱到約 44 公尺／秒</text>
<text x="736" y="1978" font-size="17.5" fill="#c6dcf0" font-weight="500" text-anchor="start">・未來 12～36 小時有約 8～10 公尺／秒北風風切，可能延長換眼</text>
<rect x="52" y="1976" width="1296" height="34" rx="10" fill="#7f1d1d" fill-opacity="0.32" stroke="#f87171" stroke-width="1.4"/>
<text x="700.0" y="1999" font-size="19" fill="#fecaca" font-weight="700" text-anchor="middle">※ 中心雖預測從沖繩以北通過，但眼區與風場非常龐大，整個琉球群島仍可能受影響。</text>
<rect x="28" y="2052" width="1344" height="112" rx="16" fill="url(#footg)" stroke="#3b82c4" stroke-width="1.5"/>
<rect x="28" y="2052" width="8" height="112" rx="4" fill="#38bdf8"/>
<text x="700.0" y="2098" font-size="27" fill="#ffffff" font-weight="700" text-anchor="middle">第四次眼牆置換造成的減弱已實際發生，路徑則仍高度確定；</text>
<text x="700.0" y="2138" font-size="27" fill="#ffffff" font-weight="700" text-anchor="middle">新變數是換眼能否完成，以及後期會維持、續弱還是重組小內核。</text>
<text x="700.0" y="2178" font-size="17" fill="#7d9fbf" font-weight="400" text-anchor="middle">※ 本圖整理自 PTT 網友討論串，屬討論性質，非官方預報；實際請以中央氣象署發布為準。</text>
</svg>